<svg xmlns="http://www.w3.org/2000/svg" viewBox="0 0 736 736">
  <!-- Purple background with rounded corners -->
  <rect width="736" height="736" rx="80" ry="80" fill="#ff5f1f"/>

  <!-- Bloodhound icon (scaled down, centered, with stroke for thickness) -->
  <g transform="translate(108, 55) scale(0.85)" fill="#000000" stroke="#000000" stroke-width="17" stroke-linejoin="round">
    <path d="M598.6,275.7c-5.4-3.6-10.3-8.1-15.8-11.6c-33.6-21.2-67-42.9-100.2-65.1c-18.8-12.6-33.7-27.5-36-53.3
      c-1.6-17-9.2-31.6-23.4-40.2c-30.7-18.4-61.4-37-95.3-47.5c-59.8-18.4-112.1-5-154.5,45.5c-7.3,8.7-15.4,16-25,21.7
      c-19.9,11.9-38.3,26.2-56.6,40.7c-35.5,28-49.3,46.3-86.3,73.2v29.4c21.9-15.7,29.2-21.6,49.9-39c34-28.7,67.3-58.3,105.2-81.1
      c10.8-6.5,20-14.6,28-24.7c37.5-47.3,85-55.2,137.8-39.3c25.2,7.5,47.2,23.3,71.1,34.1c18.3,8.3,26.5,23,28.2,43.3
      c0.8,10.1,4.5,18.9,10.1,27c13.8,20,33.6,31.6,52.7,44.2c18.1,12,36.5,23.6,54.7,35.6c3.2,2.1,6.9,3.8,4.5,9.6
      c-9.8,24.3-7.3,36.8,10.3,55.2c11.8,12.3,11.8,12.3,3.2,27.1c-14.8,25.4-33.5,46-60.6,55.6c-24.8,8.8-49.9,6.2-74.4-1.1
      c-31.2-9.3-61.5-11.7-90.5,7.7c-1.2,0.8-2.6,1-3.9,0c-1.7-2-1.2-4.5-1.4-6.8c-2.4-27.9-6.4-55.4-12.8-82.7
      c-6.5-28-14.7-55.6-19.3-84.1c-2.5-15.6-4.1-31.3-6.4-46.8c-0.7-5-2.8-9.3-8.2-9.7c-5.6-0.4-7.5,4-9,8.7
      c-2.1,6.4-1.7,12.9-1.7,19.5c-0.3,34.2,8.2,66.6,16.6,99.1c7.6,29.3,14.1,58.9,16.5,89.1c3.6,44.7,2.5,89.4-1.7,134
      c-1.3,13.5-3.6,27.1-7.8,40.2c-6.4,20.4-13.2,24.1-31.7,16c-29.5-12.8-55.8-31.5-80.5-52.7c-10.2-8.7-18.1-20-23.8-32.9
      c-11.4-25.4-9.6-52.3-7-79c2.6-26,6.6-51.9,9.2-78c2.7-26.3,4.1-52.9,6.9-79.2c2.2-20.8,7.2-41,14.5-60.4
      c1.8-4.7,2.5-8.7-1.9-11.7c-4.3-3-7.4,0-10.1,3c-2.7,3-5.4,6.1-7.4,9.6c-11.2,19.7-17,41.3-19.1,64.1c-1.5,16.3-2.6,32.7-4,49
      c-3.7,42.7-12.2,84.7-13.7,127.7c-1.3,35.7,6.1,67.5,29.6,93.5c10.1,11.1,7.5,9.6,1,19.5c-0.5,0.7-1,1.4-1.5,2.1
      c-21.6,28.2-35.9,60.6-46.6,95.1c-1.3,4.1-1.4,7.7,3.2,9.5c11.5,4.4,19.9,0.1,23.7-12.4c8.5-28.4,21.6-54.1,39-77.3
      c6.2-8.2,9.1-11.9,18-3c2.6,2.6,6.1,4.2,9.1,6.3c19.7,13.9,40.1,26.4,62.6,34.4c20.6,7.4,35.5,1.3,46.4-19
      c4.9-9.1,8-18.9,10.1-29.2c7.2-36.3,10.1-73.1,9.7-110.2c-0.1-4.8-0.4-9.8,3.3-13.3c15.5-14.5,33-22.1,54-20.3
      c20.3,1.7,39.3,9.6,59.3,12.3c25.3,3.4,49.8,1,72.7-11.6c48.3-26.7,71.9-74.1,89-126.2C614.6,296,610.5,283.6,598.6,275.7z"/>
    <path d="M407.8,207.6c4.6-1.9,6-5.3,5.5-9.5c-1.1-9.7-2.1-19.5-3.7-29.1c-1.3-7.8-6.6-10.7-13.6-7.1c-11,5.6-19.8,14.1-25.8,25.5
      c-3.9,7.3-2.5,12.4,4.8,16C385.1,208.4,395.9,209.9,407.8,207.6z"/>
  </g>
</svg>
